<?xml version="1.0" encoding="UTF-8"?>
<svg width="128" height="128" viewBox="0 0 128 128" fill="none" xmlns="http://www.w3.org/2000/svg">
  <path d="M14 34C14 28.4772 18.4772 24 24 24H50.7969C54.0356 24 57.0736 25.5677 58.9496 28.2071L64.0504 35.3865C65.9264 38.0259 68.9644 39.5936 72.2031 39.5936H104C109.523 39.5936 114 44.0707 114 49.5936V94C114 99.5228 109.523 104 104 104H24C18.4772 104 14 99.5228 14 94V34Z" fill="#C6FF00"/>
  <path d="M14 48C14 42.4772 18.4772 38 24 38H104C109.523 38 114 42.4772 114 48V94C114 99.5228 109.523 104 104 104H24C18.4772 104 14 99.5228 14 94V48Z" fill="#E8F5B4"/>
  <path d="M14 48C14 42.4772 18.4772 38 24 38H104C109.523 38 114 42.4772 114 48V94C114 99.5228 109.523 104 104 104H24C18.4772 104 14 99.5228 14 94V48Z" fill="#C6FF00" fill-opacity="0.72"/>
  <path d="M24 24H50.7969C54.0356 24 57.0736 25.5677 58.9496 28.2071L64.0504 35.3865C65.9264 38.0259 68.9644 39.5936 72.2031 39.5936H104C109.523 39.5936 114 44.0707 114 49.5936V94C114 99.5228 109.523 104 104 104H24C18.4772 104 14 99.5228 14 94V34C14 28.4772 18.4772 24 24 24Z" stroke="#0B0F14" stroke-opacity="0.18" stroke-width="5" stroke-linejoin="round"/>
</svg>
