<?xml version="1.0"?>

<!-- Artwork created by Grigoriy Yashin: https://github.com/grigoriy-yashin -->
<svg width="150mm" height="150mm" viewBox="0 0 136.95473 142.78876" version="1.1" id="svg5" xml:space="preserve"
  xmlns="http://www.w3.org/2000/svg">
  <metadata>
    <rdf:RDF xmlns:rdf="http://www.w3.org/1999/02/22-rdf-syntax-ns#" xmlns:dc="http://purl.org/dc/elements/1.1/">
      <rdf:Description>
        <dc:creator>Grigoriy Yashin</dc:creator>
        <dc:source>https://github.com/grigoriy-yashin</dc:source>
        <dc:description>Artwork created by Grigoriy Yashin for Cotton Cloud.</dc:description>
      </rdf:Description>
    </rdf:RDF>
  </metadata>
  <g id="safe-area" transform="translate(30.130041 31.413527) scale(0.56)">
  <g id="layer1" transform="translate(-36.522639,-77.105616)">
    <path id="path300-3" style="fill:#C6FF00;fill-opacity:1;stroke:none;stroke-width:0.265;stroke-linecap:round"
      d="m 105,77.105616 a 36.841144,36.841144 0 0 0 -36.052617,29.359494 36.841144,36.841144 0 0 0 -32.424744,36.55038 36.841144,36.841144 0 0 0 36.840996,36.8413 c 1.80189,0 3.604072,-4e-5 7.37732,0.83431 3.773289,0.83436 9.517796,2.50302 13.009176,5.53277 3.49134,3.02971 4.72941,7.42036 4.69575,10.8785 -0.0336,3.45817 -1.33907,5.98375 -2.67647,7.885 -1.3374,1.90129 -2.7066,3.1781 -3.60355,3.99294 -0.89695,0.81484 -1.32173,1.16785 -1.77611,1.58036 -0.45438,0.41253 -0.93843,0.88462 -1.34979,1.31676 -0.41136,0.43215 -0.74985,0.82407 -0.85083,1.73348 -0.10096,0.90941 0.0358,2.33619 0.5425,3.46455 0.50672,1.12836 1.38317,1.95847 2.5759,2.42098 1.19273,0.46251 2.70156,0.55761 4.12113,0.0943 1.41961,-0.46335 2.75012,-1.48506 3.81701,-2.37204 1.066849,-0.88699 1.870099,-1.63925 2.618219,-2.40387 0.74813,-0.76465 1.44131,-1.54193 2.18861,-2.55428 0.74729,-1.01232 1.5487,-2.2599 2.24055,-3.55792 0.69184,-1.29802 1.27389,-2.64617 1.82024,-4.32198 0.54638,-1.67581 1.05697,-3.67921 1.34799,-5.23104 0.29103,-1.55184 0.36244,-2.65223 0.60675,-3.76568 0.2443,-1.11341 0.66152,-2.23979 1.21919,-3.63717 0.55768,-1.3974 1.25605,-3.06592 3.35167,-4.8903 2.09564,-1.82438 5.58846,-3.80447 9.09188,-4.98426 3.50347,-1.17979 7.01735,-1.55918 9.16995,-1.7617 2.15263,-0.20251 2.94384,-0.22803 3.73535,-0.25368 A 36.841144,36.841144 0 0 0 173.47736,143.01552 36.841144,36.841144 0 0 0 141.05291,106.46514 36.841144,36.841144 0 0 0 105,77.105646 Z m 0,11.611948 a 25.229008,25.229008 0 0 1 24.24223,18.245916 25.229008,25.229008 0 0 1 0.42151,1.67883 25.229008,25.229008 0 0 1 0.0141,0.0694 25.229008,25.229008 0 0 1 0.29002,1.6332 25.229008,25.229008 0 0 1 0.0201,0.14351 25.229008,25.229008 0 0 1 0.17142,1.62239 25.229008,25.229008 0 0 1 0.008,0.10808 25.229008,25.229008 0 0 1 0.0609,1.72777 25.229008,25.229008 0 0 1 -0.12279,2.38285 2.0347565,2.0347565 0 0 0 1.99887,1.85567 2.0347565,2.0347565 0 0 0 0.23327,-0.0201 25.229008,25.229008 0 0 1 4.29796,-0.37858 25.229008,25.229008 0 0 1 1.64431,0.0547 25.229008,25.229008 0 0 1 0.0417,0.003 25.229008,25.229008 0 0 1 1.59958,0.15912 25.229008,25.229008 0 0 1 0.0601,0.008 25.229008,25.229008 0 0 1 1.57405,0.2618 25.229008,25.229008 0 0 1 20.30934,24.74179 25.229008,25.229008 0 0 1 -22.67057,25.09336 c 0.0282,-0.0444 0.0306,-0.0478 0.37827,-0.677 0.37713,-0.68255 1.1314,-2.04768 1.67493,-3.74015 0.54355,-1.69245 0.87622,-3.71225 0.97692,-5.10225 0.1007,-1.38998 -0.0305,-2.15019 -0.26809,-2.70859 -0.23762,-0.55843 -0.58153,-0.91494 -1.25252,-1.15255 -0.671,-0.23761 -1.66913,-0.35641 -2.96408,-0.41581 -1.29496,-0.0594 -2.88688,-0.0593 -4.74019,0.17834 -1.85332,0.23762 -3.96793,0.71266 -5.845,1.2354 -1.87707,0.52275 -3.51641,1.09323 -4.82995,1.60468 -1.31356,0.51146 -2.30108,0.96377 -3.05745,1.38642 -0.75637,0.42267 -1.28099,0.81526 -1.57586,1.04477 -0.29486,0.22951 -0.35983,0.29579 -0.4095,0.32364 -0.0497,0.0278 -0.0844,0.0175 -0.0844,-0.0375 2e-5,-0.055 0.0347,-0.15483 0.0532,-0.49896 0.0185,-0.34413 0.0207,-0.93256 -0.006,-2.14118 -0.027,-1.20864 -0.0831,-3.03731 -0.32965,-4.71617 -0.24656,-1.67885 -0.6834,-3.20784 -1.45667,-5.34123 -0.77326,-2.13339 -1.8832,-4.87106 -3.39249,-7.2098 -1.50932,-2.33876 -3.41803,-4.27838 -4.53634,-5.33642 -1.1183,-1.05805 -1.44601,-1.23428 -1.73587,-1.32668 -0.28987,-0.0924 -0.54147,-0.10087 -0.79349,-0.10928 -0.25201,0.008 -0.50392,0.0166 -0.79378,0.10898 -0.28987,0.0924 -0.61758,0.26893 -1.73588,1.32698 -1.1183,1.05804 -3.027019,2.99766 -4.536339,5.33642 -1.50929,2.33874 -2.61925,5.07641 -3.39249,7.2098 -0.77327,2.13339 -1.20981,3.66238 -1.45637,5.34123 -0.24656,1.67886 -0.30293,3.50753 -0.32994,4.71617 -0.027,1.20862 -0.0247,1.79704 -0.006,2.14118 0.0185,0.34413 0.0531,0.44394 0.0532,0.49896 2e-5,0.055 -0.0347,0.0654 -0.0844,0.0375 -0.0497,-0.0278 -0.11433,-0.0941 -0.4092,-0.32364 -0.29486,-0.22951 -0.81979,-0.6221 -1.57616,-1.04477 -0.75637,-0.42264 -1.74389,-0.87526 -3.05745,-1.38672 -1.313556,-0.51145 -2.952876,-1.08164 -4.829949,-1.60438 -1.877073,-0.52274 -3.991678,-0.99778 -5.845002,-1.2354 -1.853311,-0.23763 -3.445231,-0.23773 -4.740179,-0.17834 -1.294954,0.0594 -2.293095,0.1782 -2.964084,0.41581 -0.670988,0.23761 -1.014907,0.59412 -1.25252,1.15255 -0.237614,0.5584 -0.36879,1.31861 -0.268097,2.70859 0.100698,1.39 0.433381,3.40981 0.976918,5.10225 0.543543,1.69247 1.297801,3.0576 1.674933,3.74015 0.337481,0.61077 0.339549,0.61333 0.367168,0.65719 a 25.229008,25.229008 0 0 1 -22.659463,-25.07355 25.229008,25.229008 0 0 1 20.288618,-24.72768 36.841144,36.841144 0 0 0 0,3e-4 25.229008,25.229008 0 0 1 1.024057,-0.17233 25.229008,25.229008 0 0 1 1.07359,-0.15011 25.229008,25.229008 0 0 1 0.868238,-0.088 25.229008,25.229008 0 0 1 1.945731,-0.0901 25.229008,25.229008 0 0 1 0.02911,-0.001 25.229008,25.229008 0 0 1 4.202789,0.35366 25.229008,25.229008 0 0 1 0.0017,0 2.0347565,2.0347565 0 0 0 0.335047,0.0288 2.0347565,2.0347565 0 0 0 2.004275,-1.70105 25.229008,25.229008 0 0 1 -0.07956,-0.91297 25.229008,25.229008 0 0 1 0,-3e-4 25.229008,25.229008 0 0 1 -0.05705,-1.60828 25.229008,25.229008 0 0 1 0.09397,-2.037 25.229008,25.229008 0 0 1 0.09157,-0.85083 25.229008,25.229008 0 0 1 0.162419,-1.16365 25.229008,25.229008 0 0 1 0.180134,-1.00244 25.229008,25.229008 0 0 1 0.218558,-0.92918 25.229008,25.229008 0 0 1 0.25639,-1.01415 36.841144,36.841144 0 0 0 -0.0081,-0.002 25.229008,25.229008 0 0 1 24.234118,-18.230306 z m 0,63.631186 c 0,0.42056 0.002,0.81781 0.006,1.20449 h -0.012 c 0.004,-0.38668 0.006,-0.78393 0.006,-1.20449 z m 8.71301,11.17212 c 0.0358,0.0141 0.0703,0.0282 0.10628,0.0423 h -0.10628 z">
    </path>
  </g>
  </g>
</svg>
